<svg width="0" height="0" style="position:absolute"><symbol fill="none" viewBox="0 0 58 58" id="deposit-status-done" xmlns="http://www.w3.org/2000/svg"><circle opacity=".2" cx="29" cy="29" r="29" fill="#43C378"/><circle cx="29.421" cy="29.421" r="24.421" fill="#43C378"/><path d="M36.95 20.452a1.493 1.493 0 0 0-2.114 0l-8.46 8.46 2.115 2.115 8.46-8.475c.57-.57.57-1.53 0-2.1Zm6.36-.015-14.82 14.82-5.22-5.205a1.495 1.495 0 1 0-2.114 2.115l6.27 6.27c.585.585 1.53.585 2.115 0l15.885-15.87a1.494 1.494 0 0 0 0-2.115h-.015a1.462 1.462 0 0 0-2.1-.015ZM12.68 32.182l6.27 6.27c.586.585 1.53.585 2.116 0l1.05-1.05-7.32-7.35a1.493 1.493 0 0 0-2.115 0 1.512 1.512 0 0 0 0 2.13Z" fill="#fff"/></symbol><symbol fill="none" viewBox="0 0 16 16" id="clock" xmlns="http://www.w3.org/2000/svg"><path d="M7.555 4.111v3.43a1 1 0 0 0 .349.759l2.762 2.367" stroke="currentColor" stroke-linecap="round"/><circle cx="8" cy="8" r="7.5" stroke="currentColor"/></symbol><symbol fill="none" viewBox="0 0 29 26" id="magnifier" xmlns="http://www.w3.org/2000/svg"><path d="M18.48 15.167h-.911l-.323-.293c1.17-1.274 1.813-2.9 1.812-4.582 0-1.393-.44-2.754-1.265-3.912a7.422 7.422 0 0 0-3.367-2.594 7.963 7.963 0 0 0-4.336-.4 7.668 7.668 0 0 0-3.842 1.926 6.919 6.919 0 0 0-2.054 3.606 6.64 6.64 0 0 0 .427 4.068 7.158 7.158 0 0 0 2.764 3.16 7.858 7.858 0 0 0 4.17 1.187c1.858 0 3.566-.639 4.882-1.7l.312.303v.856l5.772 5.405 1.72-1.614-5.76-5.416Zm-6.926 0c-2.874 0-5.195-2.178-5.195-4.875 0-2.698 2.32-4.875 5.195-4.875 2.875 0 5.195 2.177 5.195 4.875 0 2.697-2.32 4.875-5.195 4.875Z" fill="currentColor"/></symbol><symbol fill="none" viewBox="0 0 10 2" id="minus" xmlns="http://www.w3.org/2000/svg"><path d="M9.6 1.96H.01V.61H9.6v1.35Z" fill="currentColor"/></symbol><symbol fill="none" viewBox="0 0 10 10" id="plus" xmlns="http://www.w3.org/2000/svg"><path d="M9.558 5.627H5.931v3.825H4.5V5.627H.891V4.295H4.5V.488h1.431v3.807h3.627v1.332Z" fill="currentColor"/></symbol></svg>